<svg width="512" height="512" viewBox="0 0 512 512" fill="none" xmlns="http://www.w3.org/2000/svg">
<path d="M405.658 507.939C402.346 507.939 399.033 506.834 396.308 504.623C392.348 501.408 299.316 424.939 299.316 341.016C299.316 282.379 347.021 234.674 405.658 234.674C464.295 234.674 512 282.379 512 341.016C512 349.211 505.356 355.853 497.163 355.853C488.97 355.853 482.326 349.21 482.326 341.016C482.326 298.742 447.933 264.349 405.659 264.349C363.385 264.349 328.992 298.742 328.992 341.016C328.992 396.868 383.294 452.708 405.612 473.297C419.531 460.343 445.962 433.517 463.887 401.619C467.902 394.473 476.947 391.939 484.091 395.953C491.234 399.968 493.771 409.013 489.756 416.157C461.748 465.996 416.96 503.024 415.065 504.576C412.33 506.817 408.995 507.939 405.658 507.939Z" fill="white"/>
<path d="M405.652 378.307C426.244 378.307 442.938 361.613 442.938 341.021C442.938 320.429 426.244 303.735 405.652 303.735C385.06 303.735 368.366 320.429 368.366 341.021C368.366 361.613 385.06 378.307 405.652 378.307Z" fill="white" fill-opacity="0.15"/>
<path d="M405.658 393.132C376.921 393.132 353.54 369.753 353.54 341.016C353.54 312.278 376.921 288.898 405.658 288.898C434.395 288.898 457.776 312.277 457.776 341.016C457.776 369.752 434.395 393.132 405.658 393.132ZM405.658 318.572C393.282 318.572 383.215 328.641 383.215 341.015C383.215 353.389 393.282 363.456 405.658 363.456C418.034 363.456 428.101 353.389 428.101 341.015C428.101 328.64 418.034 318.572 405.658 318.572Z" fill="white"/>
<path d="M151.995 494.36C145.594 494.36 139.149 493.216 132.938 490.888L35.09 454.195C14.103 446.324 0 425.975 0 403.557V124.299C0 106.565 8.701 89.949 23.277 79.848C37.852 69.748 56.468 67.434 73.071 73.661L143.358 100.019C151.198 102.96 159.876 101.715 166.572 96.691L275.616 14.906C290.453 3.777 309.684 1.018 327.054 7.533L424.902 44.226C445.891 52.099 459.994 72.448 459.994 94.864V179.417C459.994 187.612 453.35 194.254 445.157 194.254C436.964 194.254 430.32 187.611 430.32 179.417V94.865C430.32 84.749 423.955 75.565 414.481 72.013L316.634 35.32C308.795 32.379 300.117 33.626 293.42 38.647L184.376 120.433C169.534 131.564 150.307 134.321 132.935 127.806L62.652 101.448C55.051 98.596 46.856 99.613 40.179 104.24C33.504 108.866 29.674 116.178 29.674 124.3V403.556C29.674 413.674 36.038 422.856 45.51 426.408L143.358 463.101C151.198 466.042 159.876 464.797 166.572 459.773L275.616 377.988C290.453 366.859 309.684 364.1 327.054 370.615C334.728 373.492 338.615 382.044 335.738 389.718C332.863 397.389 324.309 401.278 316.636 398.401C308.796 395.463 300.118 396.705 293.422 401.728L184.378 483.514C174.844 490.665 163.495 494.36 151.995 494.36Z" fill="white"/>
<path d="M306.344 18.984C298.565 19.327 290.938 21.962 284.518 26.778L175.474 108.563C167.862 114.271 158.558 116.925 149.311 116.308V479.39C158.558 480.007 167.864 477.353 175.474 471.645L284.518 389.86C290.938 385.045 298.564 382.409 306.344 382.066V18.984Z" fill="white" fill-opacity="0.15"/>
<path d="M151.939 494.315C150.736 494.315 149.521 494.275 148.323 494.195C140.529 493.674 134.474 487.201 134.474 479.39V116.307C134.474 112.2 136.176 108.277 139.176 105.471C142.175 102.665 146.201 101.228 150.3 101.502C156.179 101.904 161.894 100.202 166.574 96.692L275.618 14.907C284.348 8.35901 294.748 4.64301 305.692 4.16001C309.744 3.99201 313.68 5.46401 316.603 8.26301C319.527 11.063 321.182 14.935 321.182 18.983V382.065C321.182 390.006 314.931 396.539 306.998 396.887C302.047 397.105 297.354 398.779 293.425 401.727L184.38 483.513C175.092 490.48 163.571 494.315 151.939 494.315ZM164.15 129.822V461.378C164.984 460.896 165.793 460.36 166.574 459.774L275.618 377.989C280.464 374.354 285.825 371.591 291.507 369.771V40.083L184.379 120.431C178.379 124.933 171.444 128.126 164.15 129.822Z" fill="white"/>
</svg>
