<?xml version="1.0" encoding="iso-8859-1"?>
<!-- Generator: Adobe Illustrator 19.0.0, SVG Export Plug-In . SVG Version: 6.00 Build 0)  -->
<svg version="1.1" id="Layer_1" xmlns="http://www.w3.org/2000/svg" xmlns:xlink="http://www.w3.org/1999/xlink" x="0px" y="0px"
	 viewBox="0 0 501.333 501.333" style="enable-background:new 0 0 501.333 501.333;" xml:space="preserve">
<g>
	<g>
		<path d="M437.26,417.067l1.067-1.067c55.467-26.667,78.933-94.933,51.2-150.4l-5.333-9.6c-2.133-5.333-6.4-8.533-11.733-10.667
			c-5.333-2.133-10.667-1.067-16,1.067l-9.6,5.333C404.193,272,380.726,316.8,383.926,361.6l-42.667-44.8
			c54.4-65.067,52.267-161.067-7.467-224l-76.8-81.067C247.393,3.2,231.393,0,220.726,0c-35.2,0-88.533,29.867-137.6,76.8
			C24.46,132.267-22.474,209.067,11.66,245.333c1.067,1.067,3.2,3.2,5.333,4.267l71.467,75.733
			c30.933,33.067,72.533,51.2,117.333,52.267c1.067,0,3.2,0,4.267,0c36.267,0,70.4-10.667,100.267-32l142.933,149.333
			c4.267,4.267,9.6,6.4,14.933,6.4c5.333,0,9.6-2.133,14.933-5.333c8.533-8.533,8.533-21.333,1.067-29.867L437.26,417.067z
			 M43.66,216.534c-1.067-1.067-2.133-2.133-2.133-2.133c0-12.8,17.067-55.467,70.4-107.733C156.727,64,200.46,41.6,220.727,41.6
			c2.133,0,3.2,0,3.2,0c3.2,8.533-12.8,54.4-70.4,109.867c-44.8,42.667-88.533,65.067-108.8,65.067
			C44.727,216.534,43.66,216.534,43.66,216.534z M298.593,300.8C274.06,324.267,242.06,336,207.926,336
			c-34.133-1.067-65.067-14.933-88.533-39.467l-41.6-44.8c32-10.667,70.4-35.2,105.6-70.4c34.133-32,64-71.467,76.8-105.6
			L302.86,121.6C350.86,172.8,348.727,252.8,298.593,300.8z M456.46,294.4c8.533,28.8-2.133,61.867-26.667,78.933
			C420.193,344.534,430.86,312.534,456.46,294.4z"/>
	</g>
</g>
<g>
</g>
<g>
</g>
<g>
</g>
<g>
</g>
<g>
</g>
<g>
</g>
<g>
</g>
<g>
</g>
<g>
</g>
<g>
</g>
<g>
</g>
<g>
</g>
<g>
</g>
<g>
</g>
<g>
</g>
</svg>
