<?xml version="1.0" encoding="iso-8859-1"?>
<!-- Generator: Adobe Illustrator 16.0.0, SVG Export Plug-In . SVG Version: 6.00 Build 0)  -->
<!DOCTYPE svg PUBLIC "-//W3C//DTD SVG 1.1//EN" "http://www.w3.org/Graphics/SVG/1.1/DTD/svg11.dtd">
<svg version="1.1" id="Capa_1" xmlns="http://www.w3.org/2000/svg" xmlns:xlink="http://www.w3.org/1999/xlink" x="0px" y="0px"
	 width="108.364px" height="108.364px" viewBox="0 0 108.364 108.364" style="enable-background:new 0 0 108.364 108.364;"
	 xml:space="preserve">
<g>
	<g>
		<path d="M54.182,0C24.258,0,0,24.258,0,54.182c0,29.924,24.258,54.183,54.182,54.183c29.923,0,54.182-24.259,54.182-54.183
			C108.364,24.258,84.105,0,54.182,0z M68.713,34.122c4.797,0,8.7,3.903,8.7,8.701c0,1.381-1.119,2.5-2.5,2.5s-2.5-1.119-2.5-2.5
			c0-2.041-1.66-3.701-3.7-3.701c-2.043,0-3.703,1.66-3.703,3.701c0,1.381-1.119,2.5-2.5,2.5s-2.5-1.119-2.5-2.5
			C60.01,38.025,63.914,34.122,68.713,34.122z M40.99,34.096c4.797,0,8.701,3.903,8.701,8.701c0,1.381-1.119,2.5-2.5,2.5
			c-1.381,0-2.5-1.119-2.5-2.5c0-2.041-1.66-3.701-3.701-3.701c-2.042,0-3.703,1.66-3.703,3.701c0,1.381-1.119,2.5-2.5,2.5
			s-2.5-1.119-2.5-2.5C32.287,37.999,36.191,34.096,40.99,34.096z M26.357,57.953c0.001-3.436,4.556-7.535,4.556-7.535
			c0.438,2.747,1.52,4.344,1.52,4.344c1.218,1.818,1.218,3.508,1.218,3.508c0,3.711-3.692,3.679-3.692,3.679
			C26.357,61.947,26.357,57.953,26.357,57.953z M76.605,79.098c-1.52,0.66-3.284-0.041-3.942-1.562
			c-2.894-6.689-9.731-11.012-17.421-11.012c-7.869,0-14.747,4.32-17.523,11.005c-0.48,1.153-1.596,1.85-2.771,1.85
			c-0.385,0-0.773-0.073-1.15-0.229c-1.53-0.637-2.256-2.393-1.619-3.922c3.71-8.932,12.764-14.703,23.064-14.703
			c10.084,0,19.084,5.742,22.927,14.63C78.827,76.674,78.128,78.439,76.605,79.098z"/>
	</g>
</g>
<g>
</g>
<g>
</g>
<g>
</g>
<g>
</g>
<g>
</g>
<g>
</g>
<g>
</g>
<g>
</g>
<g>
</g>
<g>
</g>
<g>
</g>
<g>
</g>
<g>
</g>
<g>
</g>
<g>
</g>
</svg>
